<svg id="Layer_1" data-name="Layer 1" xmlns="http://www.w3.org/2000/svg" viewBox="0 0 2123.11 1366.91"><defs><style>.cls-1{fill:#961a3d;}.cls-2{fill:#fdfeff;}</style></defs><title>svg</title><path class="cls-1" d="M2663.44,2988.16l-2.33-58.32,741.52-197.68a126.92,126.92,0,0,1,158.86,105.09h0a127.83,127.83,0,0,1-3.91,54.22c-15.84,53.68-65.39,90.35-121.35,90.78Z" transform="translate(-1439.67 -1816.97)"/><path class="cls-1" d="M2428.33,2743.78l-50.75,28.84-515.94-568.09c-28.63-31.53-40-75.33-29.46-116.6a127.62,127.62,0,0,1,49.92-72.77h0a127.44,127.44,0,0,1,50-21.41c55-10.57,110.28,16.62,136.34,66.15Z" transform="translate(-1439.67 -1816.97)"/><path class="cls-1" d="M2367.41,2782l-26.83,57.06-659.49-414.19a126.9,126.9,0,0,1-27.4-188.49h0a127.78,127.78,0,0,1,43.06-33.19c50.59-23.93,110.94-11.39,148.53,30.07Z" transform="translate(-1439.67 -1816.97)"/><path class="cls-1" d="M2347.31,2855.13l-13,62.77-748.12-222.78a126.89,126.89,0,0,1-80-172.85h0a127.56,127.56,0,0,1,31.8-44.09c41.67-37.36,103.09-42.55,150.94-13.53Z" transform="translate(-1439.67 -1816.97)"/><path class="cls-1" d="M2341.41,2928.9l48.31,59.26-824.06-7.54a126.9,126.9,0,0,1-124.89-143.81h0a127.67,127.67,0,0,1,18.29-51.19c29.64-47.47,87.21-69.53,141.24-54.95Z" transform="translate(-1439.67 -1816.97)"/><path class="cls-1" d="M2661.11,2915.47l-13.29-60.94L3314.28,2462a126.9,126.9,0,0,1,181.63,57.35h0a127.57,127.57,0,0,1,11.15,53.21c-.46,56-38,104.85-91.7,120.65Z" transform="translate(-1439.67 -1816.97)"/><path class="cls-1" d="M2639.25,2841.45l-20.88-56.62L3151,2230.09c29.68-30.54,72.68-44.58,114.53-36.66a127.62,127.62,0,0,1,75.74,45.28h0a127.48,127.48,0,0,1,24.48,48.53c14,54.2-9.72,111.11-57.53,140.2Z" transform="translate(-1439.67 -1816.97)"/><path class="cls-1" d="M2600.32,2793.4l-36-48.45,355.05-682.21c19.89-37.66,57.21-63.23,99.59-67.41a127.59,127.59,0,0,1,85.43,22.15h0a127.64,127.64,0,0,1,37.15,39.69c28.64,48.07,21.92,109.35-15.76,150.72Z" transform="translate(-1439.67 -1816.97)"/><path class="cls-1" d="M2526,2701.72l-58.05-6.16-97.32-736.68a126.91,126.91,0,0,1,127-141.91h0a127.69,127.69,0,0,1,53.08,11.75c50.81,23.46,79.9,77.81,72.19,133.24Z" transform="translate(-1439.67 -1816.97)"/><path class="cls-1" d="M2570.78,2701.72l-25.06-67.2,108.88-671.29a126.91,126.91,0,0,1,165.73-93.87h0a127.79,127.79,0,0,1,46.55,28.09c40.64,38.47,50.84,99.27,25.82,149.33Z" transform="translate(-1439.67 -1816.97)"/><path class="cls-1" d="M2444.56,2630.12l-52.49,21.44-289.57-595c-17.52-38.82-14.8-84,7.92-120a127.6,127.6,0,0,1,69.91-53.85h0a127.76,127.76,0,0,1,54.14-5c55.54,6.89,99.79,49.81,109.32,105Z" transform="translate(-1439.67 -1816.97)"/><path class="cls-2" d="M2674.42,3011.19s13,53.24,13,64.85-3.72,29.35-13,40.95-60.52,66.89-60.52,66.89,38.17-90.78,36.78-96.24,10.7-15.7-13.5-28-79.15-41-79.15-41,25.14,41,27.94,46.41,1.86,17.07-5.59,25.94-92.18,87.37-92.18,87.37,52.14-92.83,54.94-101.7,5.58-23.89-13-27.3-149-34.13-197.38-119.45.93-219.78,20.48-267.56,73.55-238.21,103.35-310.56,65.79-188.84,68.9-197,3.72-25,3.72-25l-89.38-13.19s97.45-22.3,104.9-23.66,21.1-3.19,21.1-3.19-6.82,528.75-6.82,551.5,26.07,101,98.07,144.7,193.66,124.68,218.49,181.1,11.17,113.76,0,148.35-29.79,68.48-29.79,68.48S2770,3051.69,2674.42,3011.19Z" transform="translate(-1439.67 -1816.97)"/><path class="cls-2" d="M2484.23,1943.82h78.29a6.73,6.73,0,0,1,6,9.77l-43.06,85a6.72,6.72,0,0,1-12.21-.46l-35.24-85A6.73,6.73,0,0,1,2484.23,1943.82Z" transform="translate(-1439.67 -1816.97)"/></svg>